<svg width="159" height="28" viewBox="0 0 159 28" fill="none" xmlns="http://www.w3.org/2000/svg">
<path d="M20.5361 1.734C20.5361 4.22534 20.1182 4.88305 16.1584 8.84927C11.4623 13.5529 10.9648 14.4099 11.124 17.6188C11.2036 19.1535 11.3429 19.6916 11.8403 20.8077C12.1786 21.5252 12.6562 22.3822 12.8751 22.7011L13.2731 23.2791L14.3277 22.9802C16.4569 22.3623 18.9243 20.9871 20.2376 19.7115C21.9688 17.9975 22.6653 16.4628 22.8245 13.9316L22.9638 12.0382L22.9837 14.0313C23.0235 16.3632 22.7449 17.5989 21.7101 19.6916C20.7749 21.5651 18.4666 23.9966 16.8747 24.7341L15.7803 25.2523L16.4171 25.5711C16.7553 25.7505 17.5911 26.0296 18.2875 26.189C22.5658 27.2055 26.6649 25.332 28.5752 21.5053C30.8039 17.0408 30.6845 11.7392 28.2767 7.39432C26.7644 4.68374 24.1776 2.05289 21.6305 0.617876L20.5361 2.28882e-05V1.734Z" fill="#520DC2"/>
<path d="M25.4117 0.239188C24.5958 0.378703 23.9392 0.55808 23.9591 0.637803C23.979 0.717525 24.4565 1.17593 25.0336 1.65427L26.0484 2.51129L27.3816 2.13261C29.2919 1.57455 32.5951 1.43503 34.0079 1.85358C35.2616 2.21233 35.56 2.25219 35.56 2.01302C35.56 1.71406 33.7095 0.817179 32.3762 0.478357C30.7246 0.0398805 27.3419 -0.0597732 25.4117 0.239188Z" fill="#520DC2"/>
<path d="M17.9502 2.19244C12.6969 4.14565 6.82677 7.89263 3.78225 11.2211C-0.635275 16.0642 -1.23224 21.3259 2.25005 24.754C4.10064 26.5877 6.52829 27.3849 10.1897 27.3849C12.4581 27.3849 15.8608 26.9863 15.8608 26.7072C15.8409 26.6475 15.423 26.3286 14.9256 25.9897C13.5327 25.1128 12.7566 24.3753 11.7617 22.9802C11.2841 22.3026 10.6871 21.7046 10.4284 21.6249C9.91108 21.5053 8.37887 20.2497 8.10029 19.7116C7.961 19.4724 7.961 19.1535 8.10029 18.7947C8.39877 18.0573 8.25948 18.0174 7.52323 18.6353C6.70738 19.3329 6.2696 20.1899 6.2696 21.1266C6.2895 22.1232 6.68748 22.8407 7.76201 23.8571L8.65746 24.6743L7.78191 24.8138C5.13537 25.2124 3.62306 24.4551 2.50873 22.2029C1.95157 21.0668 1.89187 20.7679 1.97147 19.5521C2.21025 15.3069 6.88646 10.9221 13.7714 8.53042C15.423 7.93249 15.6618 7.77305 16.995 6.41776C18.4875 4.90302 19.3033 3.58759 19.5421 2.31203C19.6217 1.91341 19.6615 1.57459 19.6217 1.57459C19.5819 1.59452 18.8257 1.85362 17.9502 2.19244Z" fill="#520DC2"/>
<path d="M36.6153 2.96986C35.1229 3.86674 34.9438 5.91961 36.2373 7.09552C36.8342 7.65358 37.0929 7.75323 37.9485 7.75323C38.8042 7.75323 39.0629 7.65358 39.6598 7.09552C41.391 5.50106 40.2966 2.57125 37.9485 2.57125C37.5705 2.57125 36.9735 2.75062 36.6153 2.96986Z" fill="#520DC2"/>
<path d="M27.7994 4.66357C28.3566 5.38107 28.9933 6.35768 29.2321 6.81609C29.451 7.27449 29.8888 7.87242 30.2072 8.17138L30.7444 8.68958L31.3613 8.11158C32.1971 7.31435 32.1971 6.41747 31.3613 5.4608C30.6847 4.70343 28.7546 3.68696 27.5407 3.46772L26.7846 3.32821L27.7994 4.66357Z" fill="#520DC2"/>
<path d="M93.9233 7.97281L93.2666 8.17212V17.42V26.6878H95.8535H98.4403L98.4801 20.5491L98.5398 14.4304L98.9975 15.2077C99.2562 15.6262 100.152 17.4798 100.987 19.2935C102.639 22.8411 103.415 24.1167 104.649 25.2926C105.882 26.5084 107.037 26.9668 108.887 26.9668C109.763 26.9668 110.638 26.9269 110.817 26.8472C111.116 26.7276 111.156 25.9304 111.176 17.4399L111.195 8.15219H108.589H106.002V14.2709C105.982 21.3862 106.121 21.2068 104.072 16.9217C101.724 11.9789 101.346 11.3012 100.191 10.0456C99.4154 9.20852 98.7189 8.67039 98.0025 8.35149C96.8683 7.87316 94.958 7.69378 93.9233 7.97281Z" fill="#520DC2"/>
<path d="M118.638 7.9524C114.022 8.929 111.773 12.2774 113.345 15.825C113.823 16.9212 115.355 18.5755 116.509 19.2531C117.603 19.8909 119.454 20.4689 120.608 20.5287C121.921 20.6084 122.081 20.7679 121.464 21.3857C120.787 22.0634 120.31 22.0434 117.743 21.2861C115.653 20.6881 114.101 20.449 113.365 20.6483C112.848 20.7878 112.848 21.5651 113.365 22.9802C113.882 24.3554 115.136 25.7705 116.429 26.4282C119.653 28.0824 125.304 26.3684 126.916 23.2592C127.473 22.1829 127.433 20.3095 126.817 18.994C125.662 16.5226 121.842 14.1509 118.996 14.1309C118.24 14.1309 118.181 13.8918 118.758 13.3138C119.275 12.7956 120.151 12.8753 122.578 13.6327C124.528 14.2505 125.643 14.4299 126.598 14.2505C127.314 14.111 127.334 14.0911 127.195 13.3736C126.797 11.2011 125.264 9.14824 123.414 8.33108C122.319 7.83281 119.991 7.65344 118.638 7.9524Z" fill="#520DC2"/>
<path d="M48.1958 8.13181L43.818 8.25139V17.4793V26.6873H46.3651H48.8922L48.8723 24.5149C48.8723 23.2592 48.9519 22.183 49.0713 21.9239C49.3897 21.3658 50.3448 21.1466 51.7775 21.3658C56.6527 22.0634 60.0554 19.3528 60.0753 14.7289C60.0753 12.6561 59.4983 11.1812 58.165 9.84585C56.4139 8.07202 55.5782 7.9325 48.1958 8.13181ZM53.2102 12.9351C54.8419 13.4732 55.5583 14.8285 54.643 15.7453C53.7674 16.6223 51.5984 17.1006 49.8076 16.8415L48.8922 16.702V14.7289V12.7557L49.4494 12.676C50.3846 12.5564 52.4143 12.676 53.2102 12.9351Z" fill="#520DC2"/>
<path d="M80.7906 8.33123C79.2782 9.26798 77.4078 12.5366 75.0597 18.3763C74.3035 20.2299 73.6071 21.7645 73.4877 21.8044C72.9703 21.9838 68.6324 22.2429 67.9558 22.1632L67.1997 22.0635V15.1077V8.15186H64.7123H62.225V17.4196V26.6874L67.1599 26.7273C75.9352 26.827 76.0148 26.827 76.6118 26.4283C76.9103 26.229 77.3282 25.6909 77.547 25.2126C78.1838 23.8971 78.9002 23.6181 81.9646 23.5782C85.2678 23.5185 85.5066 23.5782 85.8249 24.7143C86.2826 26.249 87.377 26.8668 89.4863 26.7871C89.9838 26.7672 90.7001 26.7273 91.118 26.7074L91.8344 26.6874L90.5012 23.1398C86.7403 13.2741 84.631 9.24805 82.7008 8.25151C81.9646 7.8529 81.5467 7.87283 80.7906 8.33123ZM82.5217 15.3668C83.0988 16.7221 83.7157 18.4959 83.7157 18.8547C83.7157 19.054 83.2779 19.1138 81.8253 19.1138C80.6115 19.1138 79.9349 19.034 79.9349 18.8945C79.9349 18.7749 80.1936 17.9578 80.512 17.0609C81.6263 13.8919 81.8253 13.7325 82.5217 15.3668Z" fill="#520DC2"/>
<path d="M135.253 8.39077C133.582 9.52682 131.612 13.1941 128.826 20.3094C126.498 26.2487 126.418 26.4879 126.577 26.6473C126.657 26.727 127.592 26.7868 128.667 26.7868C130.895 26.7868 131.452 26.5477 132.029 25.3518C132.706 23.8969 133.999 23.4385 137.104 23.5182C140.069 23.5979 140.168 23.6179 140.307 24.5147C140.486 25.6906 141.302 26.448 142.616 26.6872C143.213 26.8068 144.028 26.8466 144.407 26.8068C144.785 26.7669 145.382 26.727 145.74 26.7071L146.376 26.6872L145.879 25.3319C145.6 24.5945 144.605 22.0633 143.67 19.7114C139.73 9.78592 137.541 6.83618 135.253 8.39077ZM137.044 15.3665C137.303 15.9445 137.701 17.0208 137.959 17.7582L138.417 19.1135H136.427C135.353 19.1135 134.457 19.0338 134.457 18.9541C134.457 18.7348 135.293 16.3033 135.751 15.1672C135.93 14.7088 136.208 14.3301 136.348 14.3301C136.487 14.3301 136.805 14.8085 137.044 15.3665Z" fill="#520DC2"/>
<path d="M144.466 10.0452C144.506 11.7194 144.566 11.9785 144.964 12.3771C145.382 12.7957 145.581 12.8355 147.292 12.8156L149.182 12.7957V19.7515V26.7073L151.729 26.6475L154.256 26.5878L154.316 19.7117L154.356 12.8355L155.649 12.8953C157.261 12.9551 158.455 12.6562 158.754 12.118C158.953 11.7194 159.052 10.4239 158.972 8.88927L158.933 8.15183H151.67H144.426L144.466 10.0452Z" fill="#520DC2"/>
<path d="M38.3851 9.84619C37.7086 12.3774 35.2013 15.666 32.4155 17.7188C31.3608 18.4762 30.744 19.3532 31.0425 19.6521C31.2016 19.7916 33.4303 17.8384 34.9625 16.1842C37.1116 13.8921 38.8627 10.7032 38.7035 9.38779C38.6438 8.94931 38.604 9.02903 38.3851 9.84619Z" fill="#520DC2"/>
</svg>
