<svg width="140" height="138" viewBox="0 0 140 138" fill="none" xmlns="http://www.w3.org/2000/svg">
<g filter="url(#filter0_d_284_10735)">
<rect x="4" width="132" height="130" rx="65" fill="#7731F1" shape-rendering="crispEdges"/>
<rect x="4.5" y="0.5" width="131" height="129" rx="64.5" stroke="white" shape-rendering="crispEdges"/>
<path d="M70.7802 31.9095C70.7802 38.8038 69.6248 40.6239 58.6761 51.5995C45.6917 64.6158 44.3162 66.9875 44.7564 75.8673C44.9765 80.1141 45.3616 81.6033 46.737 84.6919C47.6724 86.6774 48.9928 89.0491 49.598 89.9315L50.6984 91.531L53.6144 90.7037C59.5014 88.9939 66.3237 85.1883 69.9549 81.6584C74.7415 76.9152 76.6672 72.6683 77.1073 65.6638L77.4925 60.4241L77.5475 65.9395C77.6575 72.3925 76.8872 75.8121 74.0263 81.6033C71.4404 86.7877 65.0582 93.5165 60.6568 95.5572L57.6307 96.9912L59.3913 97.8737C60.3266 98.3701 62.6374 99.1422 64.5631 99.5835C76.3921 102.396 87.7259 97.2118 93.0077 86.6223C99.1698 74.2678 98.8397 59.5968 92.1824 47.5733C88.001 40.0723 80.8486 32.792 73.8062 28.8209L70.7802 27.1111V31.9095Z" fill="#FAF7FE"/>
<path d="M84.2607 27.7655C82.005 28.1516 80.1894 28.648 80.2444 28.8686C80.2994 29.0892 81.6198 30.3578 83.2154 31.6815L86.0213 34.0531L89.7076 33.0052C94.9894 31.4609 104.122 31.0748 108.029 32.233C111.495 33.2258 112.32 33.3361 112.32 32.6743C112.32 31.8469 107.204 29.365 103.517 28.4274C98.9507 27.214 89.5975 26.9382 84.2607 27.7655Z" fill="#FAF7FE"/>
<path d="M63.6309 33.1744C49.106 38.5795 32.8755 48.9484 24.4576 58.1592C12.2435 71.5616 10.593 86.1222 20.2212 95.6087C25.3379 100.683 32.0502 102.889 42.1736 102.889C48.4458 102.889 57.8539 101.786 57.8539 101.014C57.7989 100.848 56.6435 99.9659 55.2681 99.0283C51.4168 96.6015 49.271 94.5608 46.5201 90.7C45.1997 88.8248 43.5491 87.1702 42.8339 86.9495C41.4034 86.6186 37.1669 83.1439 36.3967 81.6548C36.0116 80.9929 36.0116 80.1104 36.3967 79.1177C37.222 77.077 36.8368 76.9667 34.8011 78.6764C32.5454 80.6068 31.335 82.9785 31.335 85.5707C31.39 88.3284 32.4904 90.3139 35.4614 93.1268L37.9372 95.3881L35.5164 95.7742C28.1989 96.8773 24.0175 94.7814 20.9365 88.549C19.3959 85.4052 19.2309 84.5779 19.451 81.2135C20.1112 69.4657 33.0405 57.3319 52.077 50.7134C56.6435 49.0588 57.3038 48.6175 60.99 44.8671C65.1164 40.6754 67.3722 37.0352 68.0324 33.5053C68.2525 32.4023 68.3625 31.4646 68.2525 31.4646C68.1424 31.5198 66.0517 32.2368 63.6309 33.1744Z" fill="#FAF7FE"/>
<path d="M115.239 35.3259C111.112 37.8078 110.617 43.4887 114.193 46.7428C115.844 48.2871 116.559 48.5629 118.925 48.5629C121.291 48.5629 122.006 48.2871 123.657 46.7428C128.443 42.3305 125.417 34.2228 118.925 34.2228C117.88 34.2228 116.229 34.7192 115.239 35.3259Z" fill="#FAF7FE"/>
<path d="M90.8636 40.0136C92.4041 41.9991 94.1647 44.7016 94.8249 45.9702C95.4301 47.2387 96.6405 48.8934 97.5208 49.7207L99.0063 51.1547L100.712 49.5552C103.023 47.349 103.023 44.8671 100.712 42.2197C98.8413 40.1239 93.5045 37.311 90.1483 36.7043L88.0576 36.3182L90.8636 40.0136Z" fill="#FAF7FE"/>
<path d="M120.133 54.3568C118.262 61.3613 111.33 70.4617 103.627 76.1426C100.711 78.2384 99.0057 80.6652 99.831 81.4925C100.271 81.8786 106.433 76.4735 110.67 71.8957C116.612 65.553 121.453 56.7284 121.013 53.0882C120.848 51.8748 120.738 52.0955 120.133 54.3568Z" fill="#FAF7FE"/>
</g>
<defs>
<filter id="filter0_d_284_10735" x="0" y="0" width="140" height="138" filterUnits="userSpaceOnUse" color-interpolation-filters="sRGB">
<feFlood flood-opacity="0" result="BackgroundImageFix"/>
<feColorMatrix in="SourceAlpha" type="matrix" values="0 0 0 0 0 0 0 0 0 0 0 0 0 0 0 0 0 0 127 0" result="hardAlpha"/>
<feOffset dy="4"/>
<feGaussianBlur stdDeviation="2"/>
<feComposite in2="hardAlpha" operator="out"/>
<feColorMatrix type="matrix" values="0 0 0 0 0 0 0 0 0 0 0 0 0 0 0 0 0 0 0.25 0"/>
<feBlend mode="normal" in2="BackgroundImageFix" result="effect1_dropShadow_284_10735"/>
<feBlend mode="normal" in="SourceGraphic" in2="effect1_dropShadow_284_10735" result="shape"/>
</filter>
</defs>
</svg>
